<svg data-v-423bf9ae="" xmlns="http://www.w3.org/2000/svg" viewBox="0 0 698 90" class="iconLeftSlogan"><!----><!----><!----><g data-v-423bf9ae="" id="3eb41d10-a147-4c4e-82d9-06bc868989b5" fill="#000000" transform="matrix(13.577733526672345,0,0,13.577733526672345,124.12424137355424,-72.62729680023787)"><path d="M2.73 6.86L2.73 6.86L2.73 6.86Q2.71 6.90 2.70 6.96L2.70 6.96L2.70 6.96Q2.69 7.01 2.67 7.05L2.67 7.05L2.67 7.05Q2.63 7.19 2.69 7.27L2.69 7.27L2.69 7.27Q2.71 7.30 2.84 7.37L2.84 7.37L2.84 7.37Q2.90 7.41 2.99 7.53L2.99 7.53L2.99 7.53Q3.34 7.97 3.21 8.71L3.21 8.71L3.21 8.71Q3.14 9.13 2.81 9.42L2.81 9.42L2.81 9.42Q2.57 9.64 2.45 9.66L2.45 9.66L2.45 9.66Q2.39 9.67 2.29 9.68L2.29 9.68L2.29 9.68Q2.18 9.69 2.02 9.69L2.02 9.69L2.02 9.69Q1.77 9.70 1.52 9.71L1.52 9.71L1.52 9.71Q1.27 9.71 1.03 9.71L1.03 9.71L1.03 9.71Q0.82 9.71 0.67 9.71L0.67 9.71L0.67 9.71Q0.51 9.71 0.41 9.70L0.41 9.70L0.41 9.70Q0.36 9.70 0.24 9.69L0.24 9.69L0.24 9.69Q0.13 9.67 0.09 9.65L0.09 9.65L0.07 9.60L0.07 9.60Q0.05 9.58 0.05 9.55L0.05 9.55L0.05 9.55Q0.04 9.52 0.03 9.50L0.03 9.50L0.03 9.50Q0.02 9.43 0.02 9.32L0.02 9.32L0.02 8.96L0.02 8.39L0.02 8.39Q0.02 8.24 0.01 8.10L0.01 8.10L0.01 8.10Q0 7.96 0 7.81L0 7.81L0 7.81Q0.01 7.49 0.02 7.18L0.02 7.18L0.02 7.18Q0.02 6.87 0.01 6.54L0.01 6.54L0.01 6.54Q0.01 6.36 0.02 6.17L0.02 6.17L0.02 6.17Q0.03 5.97 0.05 5.79L0.05 5.79L0.05 5.79Q0.05 5.73 0.05 5.65L0.05 5.65L0.05 5.65Q0.05 5.58 0.06 5.50L0.06 5.50L0.06 5.50Q0.09 5.46 0.10 5.46L0.10 5.46L0.10 5.46Q0.16 5.41 0.28 5.41L0.28 5.41L0.28 5.41Q0.40 5.41 0.49 5.41L0.49 5.41L0.49 5.41Q0.57 5.41 0.67 5.42L0.67 5.42L0.67 5.42Q0.76 5.43 0.85 5.43L0.85 5.43L0.85 5.43Q1.03 5.43 1.23 5.44L1.23 5.44L1.23 5.44Q1.43 5.46 1.65 5.48L1.65 5.48L1.65 5.48Q2.08 5.52 2.39 5.75L2.39 5.75L2.39 5.75Q2.73 6.02 2.75 6.60L2.75 6.60L2.75 6.60Q2.75 6.69 2.73 6.86ZM0.46 8.01L0.46 8.54L0.46 8.54Q0.46 8.63 0.46 8.72L0.46 8.72L0.46 8.72Q0.46 8.81 0.47 8.90L0.47 8.90L0.47 8.90Q0.48 9.15 0.56 9.20L0.56 9.20L0.56 9.20Q0.58 9.21 0.64 9.24L0.64 9.24L0.64 9.24Q0.70 9.26 0.80 9.27L0.80 9.27L0.80 9.27Q0.87 9.28 0.94 9.28L0.94 9.28L0.94 9.28Q1.01 9.28 1.09 9.29L1.09 9.29L1.09 9.29Q1.16 9.29 1.26 9.30L1.26 9.30L1.26 9.30Q1.37 9.32 1.51 9.32L1.51 9.32L1.51 9.32Q1.70 9.32 1.89 9.30L1.89 9.30L1.89 9.30Q2.08 9.27 2.28 9.21L2.28 9.21L2.28 9.21Q2.67 9.11 2.78 8.67L2.78 8.67L2.78 8.66L2.78 8.66Q2.80 8.57 2.81 8.46L2.81 8.46L2.81 8.46Q2.82 8.35 2.81 8.24L2.81 8.24L2.81 8.24Q2.80 8.13 2.76 8.03L2.76 8.03L2.76 8.03Q2.73 7.93 2.67 7.85L2.67 7.85L2.66 7.84L2.66 7.84Q2.56 7.74 2.43 7.68L2.43 7.68L2.43 7.68Q2.30 7.62 2.15 7.60L2.15 7.60L2.15 7.60Q2.01 7.57 1.86 7.57L1.86 7.57L1.86 7.57Q1.72 7.57 1.59 7.57L1.59 7.57L1.59 7.57Q1.49 7.59 1.39 7.59L1.39 7.59L1.39 7.59Q1.30 7.60 1.21 7.61L1.21 7.61L1.21 7.61Q1.11 7.62 1.04 7.62L1.04 7.62L1.04 7.62Q0.96 7.62 0.90 7.62L0.90 7.62L0.90 7.62Q0.65 7.62 0.57 7.69L0.57 7.69L0.57 7.69Q0.46 7.79 0.46 8.01L0.46 8.01ZM2.26 6.46L2.25 6.43L2.25 6.42L2.25 6.42Q2.19 6.23 2.10 6.12L2.10 6.12L2.10 6.12Q2.00 6.01 1.88 5.94L1.88 5.94L1.88 5.94Q1.76 5.88 1.61 5.86L1.61 5.86L1.61 5.86Q1.46 5.84 1.27 5.84L1.27 5.84L1.27 5.84Q1.06 5.84 0.85 5.86L0.85 5.86L0.85 5.86Q0.57 5.89 0.49 6.04L0.49 6.04L0.49 6.04Q0.44 6.14 0.46 6.27L0.46 6.27L0.46 6.27Q0.49 6.39 0.49 6.50L0.49 6.50L0.49 6.50Q0.50 6.56 0.50 6.64L0.50 6.64L0.50 6.64Q0.49 6.73 0.48 6.83L0.48 6.83L0.48 6.83Q0.46 7.03 0.53 7.12L0.53 7.12L0.53 7.12Q0.57 7.18 0.64 7.22L0.64 7.22L0.64 7.22Q0.71 7.25 0.79 7.26L0.79 7.26L0.79 7.26Q0.88 7.27 0.96 7.27L0.96 7.27L0.96 7.27Q1.04 7.27 1.10 7.27L1.10 7.27L1.10 7.27Q1.23 7.27 1.37 7.27L1.37 7.27L1.37 7.27Q1.52 7.26 1.69 7.24L1.69 7.24L1.69 7.24Q2.04 7.18 2.19 6.96L2.19 6.96L2.19 6.96Q2.26 6.87 2.27 6.76L2.27 6.76L2.27 6.76Q2.28 6.65 2.27 6.52L2.27 6.52L2.26 6.46ZM8.93 9.47L8.93 9.47L8.93 9.47Q8.93 9.65 8.78 9.69L8.78 9.69L8.78 9.69Q8.66 9.75 8.57 9.61L8.57 9.61L8.57 9.61Q8.52 9.54 8.49 9.49L8.49 9.49L8.49 9.49Q8.46 9.43 8.44 9.39L8.44 9.39L8.44 9.39Q8.34 9.18 8.26 9.03L8.26 9.03L8.26 9.03Q8.19 8.87 8.11 8.78L8.11 8.78L8.11 8.78Q7.95 8.55 7.75 8.49L7.75 8.49L7.75 8.49Q7.58 8.44 7.21 8.48L7.21 8.48L7.21 8.48Q6.99 8.50 6.79 8.51L6.79 8.51L6.79 8.51Q6.60 8.52 6.42 8.50L6.42 8.50L6.42 8.50Q6.02 8.48 5.83 8.76L5.83 8.76L5.82 8.78L5.81 8.79L5.81 8.79Q5.74 8.93 5.70 9.06L5.70 9.06L5.70 9.06Q5.65 9.19 5.59 9.32L5.59 9.32L5.45 9.54L5.45 9.54Q5.35 9.69 5.25 9.70L5.25 9.70L5.25 9.70Q5.20 9.72 5.11 9.65L5.11 9.65L5.11 9.65Q5.07 9.60 5.06 9.55L5.06 9.55L5.06 9.55Q5.05 9.49 5.06 9.43L5.06 9.43L5.06 9.43Q5.07 9.37 5.10 9.30L5.10 9.30L5.10 9.30Q5.12 9.24 5.14 9.19L5.14 9.19L5.30 8.85L5.30 8.85Q5.54 8.35 5.75 7.85L5.75 7.85L5.75 7.85Q5.96 7.34 6.19 6.83L6.19 6.83L6.19 6.83Q6.23 6.74 6.27 6.66L6.27 6.66L6.27 6.66Q6.30 6.58 6.33 6.51L6.33 6.51L6.33 6.51Q6.41 6.32 6.48 6.14L6.48 6.14L6.48 6.14Q6.56 5.95 6.65 5.76L6.65 5.76L6.75 5.61L6.75 5.61Q6.83 5.48 6.90 5.48L6.90 5.48L6.90 5.48Q6.97 5.46 7.08 5.59L7.08 5.59L7.08 5.59Q7.19 5.73 7.30 5.91L7.30 5.91L7.30 5.91Q7.40 6.10 7.48 6.26L7.48 6.26L7.48 6.26Q7.72 6.77 7.93 7.28L7.93 7.28L7.93 7.28Q8.13 7.79 8.37 8.28L8.37 8.28L8.37 8.28Q8.45 8.43 8.52 8.58L8.52 8.58L8.52 8.58Q8.59 8.74 8.67 8.88L8.67 8.88L8.67 8.88Q8.72 8.98 8.76 9.08L8.76 9.08L8.76 9.08Q8.80 9.17 8.85 9.27L8.85 9.27L8.85 9.27Q8.88 9.34 8.90 9.39L8.90 9.39L8.90 9.39Q8.92 9.44 8.93 9.47ZM7.57 7.56L7.57 7.56L7.57 7.56Q7.51 7.40 7.44 7.22L7.44 7.22L7.44 7.22Q7.38 7.05 7.29 6.88L7.29 6.88L7.29 6.88Q7.12 6.57 6.92 6.58L6.92 6.58L6.92 6.58Q6.85 6.58 6.79 6.62L6.79 6.62L6.79 6.62Q6.73 6.67 6.69 6.72L6.69 6.72L6.69 6.72Q6.65 6.78 6.62 6.85L6.62 6.85L6.62 6.85Q6.58 6.92 6.56 6.98L6.56 6.98L6.56 6.98Q6.49 7.18 6.42 7.40L6.42 7.40L6.42 7.40Q6.35 7.62 6.29 7.83L6.29 7.83L6.29 7.83Q6.24 7.98 6.30 8.05L6.30 8.05L6.30 8.05Q6.34 8.12 6.51 8.13L6.51 8.13L6.51 8.13Q6.67 8.14 6.78 8.15L6.78 8.15L6.78 8.15Q6.90 8.15 6.97 8.14L6.97 8.14L6.97 8.14Q7.12 8.14 7.37 8.10L7.37 8.10L7.37 8.10Q7.62 8.06 7.67 7.88L7.67 7.88L7.67 7.88Q7.69 7.77 7.64 7.69L7.64 7.69L7.64 7.69Q7.63 7.66 7.60 7.63L7.60 7.63L7.60 7.63Q7.58 7.59 7.57 7.56ZM13.34 5.67L13.34 5.67L13.34 5.67Q13.48 5.82 13.57 5.99L13.57 5.99L13.57 5.99Q13.65 6.16 13.74 6.34L13.74 6.34L13.74 6.34Q13.84 6.54 13.80 6.74L13.80 6.74L13.80 6.74Q13.76 6.94 13.58 7.13L13.58 7.13L13.58 7.13Q13.43 7.28 13.10 7.37L13.10 7.37L13.10 7.37Q12.97 7.40 12.83 7.44L12.83 7.44L12.83 7.44Q12.69 7.48 12.64 7.60L12.64 7.60L12.64 7.60Q12.60 7.72 12.66 7.84L12.66 7.84L12.66 7.84Q12.73 7.97 12.77 8.05L12.77 8.05L12.77 8.05Q12.81 8.13 12.84 8.18L12.84 8.18L12.84 8.18Q12.87 8.24 12.93 8.33L12.93 8.33L12.93 8.33Q12.98 8.42 13.06 8.52L13.06 8.52L13.06 8.52Q13.21 8.74 13.39 8.93L13.39 8.93L13.39 8.93Q13.56 9.13 13.74 9.30L13.74 9.30L13.77 9.34L13.77 9.34Q13.92 9.49 13.78 9.63L13.78 9.63L13.78 9.63Q13.62 9.79 13.48 9.64L13.48 9.64L13.48 9.64Q13.36 9.52 13.28 9.43L13.28 9.43L13.28 9.43Q13.19 9.34 13.11 9.26L13.11 9.26L13.11 9.26Q12.95 9.05 12.80 8.83L12.80 8.83L12.80 8.83Q12.70 8.67 12.60 8.53L12.60 8.53L12.60 8.53Q12.49 8.39 12.39 8.23L12.39 8.23L12.39 8.23Q12.12 7.74 11.72 7.58L11.72 7.58L11.72 7.58Q11.29 7.42 11.09 7.70L11.09 7.70L11.09 7.70Q11.03 7.80 11.03 7.92L11.03 7.92L11.03 9.40L11.03 9.49L11.03 9.49Q11.03 9.69 10.81 9.70L10.81 9.70L10.81 9.70Q10.60 9.69 10.60 9.44L10.60 9.44L10.60 9.44Q10.60 9.28 10.61 9.12L10.61 9.12L10.61 9.12Q10.62 8.95 10.63 8.76L10.63 8.76L10.63 8.76Q10.64 8.63 10.63 8.49L10.63 8.49L10.63 8.49Q10.62 8.35 10.62 8.22L10.62 8.22L10.62 8.22Q10.62 8.09 10.62 7.96L10.62 7.96L10.62 7.96Q10.63 7.83 10.63 7.70L10.63 7.70L10.63 7.70Q10.64 7.40 10.61 7.07L10.61 7.07L10.61 7.07Q10.61 6.84 10.62 6.61L10.62 6.61L10.62 6.61Q10.63 6.38 10.62 6.14L10.62 6.14L10.62 6.14Q10.62 6.02 10.62 5.86L10.62 5.86L10.62 5.86Q10.62 5.71 10.66 5.58L10.66 5.58L10.66 5.58Q10.78 5.42 11.24 5.42L11.24 5.42L11.45 5.42L11.45 5.42Q11.70 5.42 11.95 5.44L11.95 5.44L11.95 5.44Q12.20 5.46 12.44 5.45L12.44 5.45L12.44 5.45Q13.01 5.42 13.34 5.67ZM11.42 7.15L11.42 7.15L11.42 7.15Q11.68 7.16 11.87 7.16L11.87 7.16L11.87 7.16Q12.07 7.16 12.21 7.14L12.21 7.14L12.21 7.14Q12.34 7.13 12.50 7.11L12.50 7.11L12.50 7.11Q12.66 7.09 12.85 7.05L12.85 7.05L12.85 7.05Q13.24 6.97 13.36 6.69L13.36 6.69L13.36 6.69Q13.41 6.59 13.39 6.47L13.39 6.47L13.39 6.47Q13.38 6.34 13.31 6.24L13.31 6.24L13.31 6.24Q13.25 6.14 13.15 6.07L13.15 6.07L13.15 6.07Q13.05 6.00 12.93 5.94L12.93 5.94L12.93 5.94Q12.82 5.89 12.71 5.87L12.71 5.87L12.71 5.87Q12.42 5.82 12.14 5.83L12.14 5.83L12.14 5.83Q11.85 5.84 11.57 5.82L11.57 5.82L11.57 5.82Q11.51 5.82 11.46 5.82L11.46 5.82L11.46 5.82Q11.41 5.82 11.35 5.82L11.35 5.82L11.35 5.82Q11.21 5.81 11.14 5.89L11.14 5.89L11.14 5.89Q11.07 5.96 11.09 6.08L11.09 6.08L11.09 6.08Q11.09 6.12 11.09 6.23L11.09 6.23L11.09 6.23Q11.09 6.33 11.07 6.43L11.07 6.43L11.07 6.43Q11.05 6.52 11.05 6.62L11.05 6.62L11.05 6.62Q11.01 6.88 11.11 7.01L11.11 7.01L11.11 7.01Q11.20 7.14 11.42 7.15ZM15.61 5.50L15.61 5.50L15.61 5.50Q15.96 5.21 16.00 5.67L16.00 5.67L16.00 5.67Q16.02 5.76 16.02 5.87L16.02 5.87L16.02 5.87Q16.02 5.97 16.01 6.08L16.01 6.08L16.01 6.08Q16.00 6.21 16.00 6.32L16.00 6.32L16.00 6.32Q16.00 6.44 16.00 6.56L16.00 6.56L16.00 6.56Q16.01 6.90 16.17 6.96L16.17 6.96L16.17 6.96Q16.33 7.02 16.51 6.82L16.51 6.82L16.51 6.82Q16.63 6.69 16.77 6.54L16.77 6.54L16.77 6.54Q16.91 6.39 17.07 6.25L17.07 6.25L17.07 6.25Q17.21 6.14 17.34 6.02L17.34 6.02L17.34 6.02Q17.47 5.89 17.60 5.77L17.60 5.77L17.60 5.77Q17.62 5.74 17.68 5.70L17.68 5.70L17.68 5.70Q17.74 5.65 17.83 5.58L17.83 5.58L17.83 5.58Q17.99 5.46 18.07 5.43L18.07 5.43L18.07 5.43Q18.22 5.41 18.30 5.51L18.30 5.51L18.30 5.51Q18.36 5.63 18.25 5.74L18.25 5.74L18.25 5.74Q18.16 5.87 18.08 5.96L18.08 5.96L18.08 5.96Q18.01 6.04 17.96 6.09L17.96 6.09L17.96 6.09Q17.86 6.19 17.61 6.38L17.61 6.38L17.61 6.38Q17.50 6.46 17.38 6.56L17.38 6.56L17.38 6.56Q17.27 6.65 17.17 6.75L17.17 6.75L17.17 6.75Q17.00 6.94 16.98 7.10L16.98 7.10L16.98 7.10Q16.97 7.18 17.00 7.28L17.00 7.28L17.00 7.28Q17.02 7.38 17.09 7.50L17.09 7.50L17.09 7.50Q17.15 7.62 17.22 7.74L17.22 7.74L17.22 7.74Q17.29 7.86 17.35 7.98L17.35 7.98L17.35 7.98Q17.38 8.05 17.41 8.11L17.41 8.11L17.41 8.11Q17.44 8.16 17.45 8.20L17.45 8.20L17.45 8.20L17.45 8.20Q17.61 8.50 17.84 8.78L17.84 8.78L17.84 8.78Q18.07 9.06 18.36 9.34L18.36 9.34L18.36 9.34Q18.51 9.48 18.36 9.63L18.36 9.63L18.36 9.63Q18.21 9.79 18.06 9.64L18.06 9.64L18.06 9.64Q17.53 9.14 17.28 8.74L17.28 8.74L17.28 8.74Q17.12 8.49 16.99 8.22L16.99 8.22L16.99 8.22Q16.86 7.95 16.73 7.68L16.73 7.68L16.73 7.68Q16.63 7.46 16.48 7.45L16.48 7.45L16.48 7.45Q16.36 7.45 16.17 7.67L16.17 7.67L16.17 7.67Q16.10 7.77 16.06 7.87L16.06 7.87L16.06 7.87Q16.03 7.97 16.02 8.08L16.02 8.08L16.02 8.08Q16.00 8.24 16.04 8.40L16.04 8.40L16.04 8.40Q16.07 8.57 16.05 8.72L16.05 8.72L16.05 8.72Q16.05 8.76 16.04 8.78L16.04 8.78L16.04 8.78Q16.02 8.97 16.01 9.14L16.01 9.14L16.01 9.14Q16.00 9.32 16.01 9.48L16.01 9.48L16.01 9.48Q16.01 9.68 15.78 9.70L15.78 9.70L15.78 9.70Q15.59 9.69 15.59 9.49L15.59 9.49L15.59 9.49Q15.59 9.16 15.58 8.84L15.58 8.84L15.58 8.84Q15.57 8.51 15.55 8.18L15.55 8.18L15.55 8.18Q15.54 7.94 15.57 7.69L15.57 7.69L15.57 7.69Q15.61 7.44 15.61 7.20L15.61 7.20L15.61 7.20Q15.61 7.11 15.61 7.01L15.61 7.01L15.61 7.01Q15.61 6.92 15.61 6.82L15.61 6.82L15.61 6.82Q15.62 6.47 15.61 6.33L15.61 6.33L15.54 5.91L15.54 5.91Q15.50 5.65 15.61 5.50ZM25.50 6.86L25.50 6.86L25.50 6.86Q25.48 6.90 25.47 6.96L25.47 6.96L25.47 6.96Q25.46 7.01 25.44 7.05L25.44 7.05L25.44 7.05Q25.40 7.19 25.46 7.27L25.46 7.27L25.46 7.27Q25.48 7.30 25.61 7.37L25.61 7.37L25.61 7.37Q25.67 7.41 25.76 7.53L25.76 7.53L25.76 7.53Q26.11 7.97 25.98 8.71L25.98 8.71L25.98 8.71Q25.91 9.13 25.58 9.42L25.58 9.42L25.58 9.42Q25.34 9.64 25.22 9.66L25.22 9.66L25.22 9.66Q25.16 9.67 25.06 9.68L25.06 9.68L25.06 9.68Q24.95 9.69 24.79 9.69L24.79 9.69L24.79 9.69Q24.54 9.70 24.29 9.71L24.29 9.71L24.29 9.71Q24.04 9.71 23.80 9.71L23.80 9.71L23.80 9.71Q23.59 9.71 23.44 9.71L23.44 9.71L23.44 9.71Q23.28 9.71 23.18 9.70L23.18 9.70L23.18 9.70Q23.13 9.70 23.01 9.69L23.01 9.69L23.01 9.69Q22.90 9.67 22.86 9.65L22.86 9.65L22.84 9.60L22.84 9.60Q22.83 9.58 22.82 9.55L22.82 9.55L22.82 9.55Q22.81 9.52 22.80 9.50L22.80 9.50L22.80 9.50Q22.79 9.43 22.79 9.32L22.79 9.32L22.79 8.96L22.79 8.39L22.79 8.39Q22.79 8.24 22.78 8.10L22.78 8.10L22.78 8.10Q22.77 7.96 22.77 7.81L22.77 7.81L22.77 7.81Q22.78 7.49 22.79 7.18L22.79 7.18L22.79 7.18Q22.79 6.87 22.78 6.54L22.78 6.54L22.78 6.54Q22.78 6.36 22.79 6.17L22.79 6.17L22.79 6.17Q22.80 5.97 22.82 5.79L22.82 5.79L22.82 5.79Q22.83 5.73 22.82 5.65L22.82 5.65L22.82 5.65Q22.82 5.58 22.83 5.50L22.83 5.50L22.83 5.50Q22.86 5.46 22.87 5.46L22.87 5.46L22.87 5.46Q22.93 5.41 23.05 5.41L23.05 5.41L23.05 5.41Q23.17 5.41 23.26 5.41L23.26 5.41L23.26 5.41Q23.34 5.41 23.44 5.42L23.44 5.42L23.44 5.42Q23.53 5.43 23.63 5.43L23.63 5.43L23.63 5.43Q23.80 5.43 24.00 5.44L24.00 5.44L24.00 5.44Q24.20 5.46 24.42 5.48L24.42 5.48L24.42 5.48Q24.86 5.52 25.16 5.75L25.16 5.75L25.16 5.75Q25.50 6.02 25.53 6.60L25.53 6.60L25.53 6.60Q25.53 6.69 25.50 6.86ZM23.23 8.01L23.23 8.54L23.23 8.54Q23.23 8.63 23.23 8.72L23.23 8.72L23.23 8.72Q23.24 8.81 23.24 8.90L23.24 8.90L23.24 8.90Q23.25 9.15 23.33 9.20L23.33 9.20L23.33 9.20Q23.35 9.21 23.41 9.24L23.41 9.24L23.41 9.24Q23.47 9.26 23.57 9.27L23.57 9.27L23.57 9.27Q23.64 9.28 23.71 9.28L23.71 9.28L23.71 9.28Q23.78 9.28 23.86 9.29L23.86 9.29L23.86 9.29Q23.93 9.29 24.03 9.30L24.03 9.30L24.03 9.30Q24.14 9.32 24.28 9.32L24.28 9.32L24.28 9.32Q24.47 9.32 24.66 9.30L24.66 9.30L24.66 9.30Q24.85 9.27 25.05 9.21L25.05 9.21L25.05 9.21Q25.44 9.11 25.55 8.67L25.55 8.67L25.55 8.66L25.55 8.66Q25.57 8.57 25.58 8.46L25.58 8.46L25.58 8.46Q25.59 8.35 25.58 8.24L25.58 8.24L25.58 8.24Q25.57 8.13 25.53 8.03L25.53 8.03L25.53 8.03Q25.50 7.93 25.44 7.85L25.44 7.85L25.43 7.84L25.43 7.84Q25.33 7.74 25.20 7.68L25.20 7.68L25.20 7.68Q25.07 7.62 24.92 7.60L24.92 7.60L24.92 7.60Q24.78 7.57 24.63 7.57L24.63 7.57L24.63 7.57Q24.49 7.57 24.36 7.57L24.36 7.57L24.36 7.57Q24.26 7.59 24.17 7.59L24.17 7.59L24.17 7.59Q24.07 7.60 23.98 7.61L23.98 7.61L23.98 7.61Q23.88 7.62 23.81 7.62L23.81 7.62L23.81 7.62Q23.73 7.62 23.67 7.62L23.67 7.62L23.67 7.62Q23.42 7.62 23.34 7.69L23.34 7.69L23.34 7.69Q23.23 7.79 23.23 8.01L23.23 8.01ZM25.03 6.46L25.02 6.43L25.02 6.42L25.02 6.42Q24.96 6.23 24.87 6.12L24.87 6.12L24.87 6.12Q24.77 6.01 24.65 5.94L24.65 5.94L24.65 5.94Q24.53 5.88 24.38 5.86L24.38 5.86L24.38 5.86Q24.23 5.84 24.04 5.84L24.04 5.84L24.04 5.84Q23.83 5.84 23.62 5.86L23.62 5.86L23.62 5.86Q23.34 5.89 23.26 6.04L23.26 6.04L23.26 6.04Q23.21 6.14 23.23 6.27L23.23 6.27L23.23 6.27Q23.26 6.39 23.26 6.50L23.26 6.50L23.26 6.50Q23.27 6.56 23.27 6.64L23.27 6.64L23.27 6.64Q23.26 6.73 23.25 6.83L23.25 6.83L23.25 6.83Q23.23 7.03 23.30 7.12L23.30 7.12L23.30 7.12Q23.34 7.18 23.41 7.22L23.41 7.22L23.41 7.22Q23.48 7.25 23.56 7.26L23.56 7.26L23.56 7.26Q23.65 7.27 23.73 7.27L23.73 7.27L23.73 7.27Q23.81 7.27 23.87 7.27L23.87 7.27L23.87 7.27Q24.00 7.27 24.14 7.27L24.14 7.27L24.14 7.27Q24.29 7.26 24.46 7.24L24.46 7.24L24.46 7.24Q24.81 7.18 24.96 6.96L24.96 6.96L24.96 6.96Q25.03 6.87 25.04 6.76L25.04 6.76L25.04 6.76Q25.05 6.65 25.04 6.52L25.04 6.52L25.03 6.46ZM29.23 9.69L29.23 9.69L29.23 9.69Q29.09 9.65 28.95 9.58L28.95 9.58L28.95 9.58Q28.81 9.52 28.68 9.43L28.68 9.43L28.68 9.43Q28.55 9.34 28.43 9.24L28.43 9.24L28.43 9.24Q28.31 9.13 28.23 9.01L28.23 9.01L28.23 9.01Q28.12 8.84 28.08 8.66L28.08 8.66L28.08 8.66Q28.03 8.48 27.94 8.29L27.94 8.29L27.94 8.29Q27.87 8.13 27.86 7.96L27.86 7.96L27.86 7.96Q27.86 7.88 27.85 7.79L27.85 7.79L27.85 7.79Q27.84 7.70 27.84 7.62L27.84 7.62L27.84 7.62Q27.83 7.54 27.83 7.48L27.83 7.48L27.83 7.48Q27.82 7.42 27.82 7.38L27.82 7.38L27.82 7.38Q27.82 7.25 27.84 7.11L27.84 7.11L27.84 7.11Q27.86 6.97 27.89 6.82L27.89 6.82L27.89 6.82Q27.90 6.77 27.93 6.69L27.93 6.69L27.93 6.69Q28 6.49 28.11 6.31L28.11 6.31L28.11 6.31Q28.21 6.13 28.35 5.97L28.35 5.97L28.35 5.97Q28.62 5.67 29.09 5.43L29.09 5.43L29.09 5.43Q29.31 5.34 29.55 5.35L29.55 5.35L29.55 5.35Q29.70 5.36 29.85 5.39L29.85 5.39L29.85 5.39Q29.98 5.41 30.07 5.42L30.07 5.42L30.07 5.42Q30.16 5.43 30.23 5.44L30.23 5.44L30.23 5.44Q30.75 5.50 31.16 5.91L31.16 5.91L31.16 5.91Q31.25 6.00 31.33 6.10L31.33 6.10L31.33 6.10Q31.40 6.21 31.48 6.33L31.48 6.33L31.51 6.38L31.51 6.38Q31.52 6.41 31.53 6.42L31.53 6.42L31.53 6.42Q31.53 6.43 31.54 6.45L31.54 6.45L31.54 6.45Q31.66 6.72 31.75 7.13L31.75 7.13L31.75 7.13Q31.84 7.51 31.78 7.83L31.78 7.83L31.78 7.83Q31.74 8.02 31.68 8.19L31.68 8.19L31.68 8.19Q31.62 8.36 31.57 8.53L31.57 8.53L31.57 8.53Q31.30 9.45 30.37 9.69L30.37 9.69L30.31 9.70L30.31 9.70Q30.26 9.71 30.17 9.73L30.17 9.73L30.17 9.73Q30.09 9.74 29.98 9.75L29.98 9.75L29.98 9.75Q29.80 9.78 29.62 9.76L29.62 9.76L29.62 9.76Q29.43 9.75 29.23 9.69ZM29.93 5.78L29.92 5.78L29.92 5.78Q29.55 5.78 29.25 5.87L29.25 5.87L29.25 5.87Q28.96 5.95 28.72 6.19L28.72 6.19L28.72 6.19Q28.39 6.52 28.30 6.92L28.30 6.92L28.30 6.92Q28.21 7.32 28.31 7.81L28.31 7.81L28.37 8.15L28.37 8.15Q28.38 8.24 28.40 8.30L28.40 8.30L28.40 8.30Q28.41 8.36 28.42 8.37L28.42 8.37L28.42 8.37Q28.46 8.52 28.58 8.66L28.58 8.66L28.58 8.66Q28.70 8.80 28.81 8.90L28.81 8.90L28.81 8.90Q28.86 8.96 28.92 9.02L28.92 9.02L28.92 9.02Q28.97 9.08 29.03 9.13L29.03 9.13L29.03 9.13Q29.13 9.21 29.37 9.29L29.37 9.29L29.38 9.29L29.38 9.29Q29.51 9.32 29.67 9.31L29.67 9.31L29.67 9.31Q29.83 9.30 30.03 9.26L30.03 9.26L30.03 9.26Q30.13 9.23 30.23 9.22L30.23 9.22L30.23 9.22Q30.32 9.21 30.43 9.18L30.43 9.18L30.43 9.18Q30.68 9.12 30.85 8.91L30.85 8.91L30.86 8.91L30.86 8.90L30.86 8.90Q30.97 8.77 31.04 8.57L31.04 8.57L31.04 8.57Q31.11 8.37 31.14 8.32L31.14 8.32L31.14 8.32Q31.49 7.65 31.25 6.87L31.25 6.87L31.24 6.86L31.24 6.86Q31.21 6.79 31.19 6.72L31.19 6.72L31.19 6.72Q31.16 6.65 31.11 6.58L31.11 6.58L31.11 6.58Q30.84 6.18 30.47 6.00L30.47 6.00L30.47 6.00Q30.46 6.00 30.41 5.97L30.41 5.97L30.41 5.97Q30.37 5.94 30.28 5.89L30.28 5.89L30.28 5.89Q30.15 5.81 29.93 5.78L29.93 5.78ZM35.02 9.69L35.02 9.69L35.02 9.69Q34.88 9.65 34.74 9.58L34.74 9.58L34.74 9.58Q34.60 9.52 34.47 9.43L34.47 9.43L34.47 9.43Q34.34 9.34 34.22 9.24L34.22 9.24L34.22 9.24Q34.10 9.13 34.02 9.01L34.02 9.01L34.02 9.01Q33.91 8.84 33.87 8.66L33.87 8.66L33.87 8.66Q33.82 8.48 33.73 8.29L33.73 8.29L33.73 8.29Q33.66 8.13 33.65 7.96L33.65 7.96L33.65 7.96Q33.65 7.88 33.64 7.79L33.64 7.79L33.64 7.79Q33.63 7.70 33.63 7.62L33.63 7.62L33.63 7.62Q33.62 7.54 33.62 7.48L33.62 7.48L33.62 7.48Q33.61 7.42 33.61 7.38L33.61 7.38L33.61 7.38Q33.61 7.25 33.63 7.11L33.63 7.11L33.63 7.11Q33.65 6.97 33.68 6.82L33.68 6.82L33.68 6.82Q33.69 6.77 33.72 6.69L33.72 6.69L33.72 6.69Q33.79 6.49 33.90 6.31L33.90 6.31L33.90 6.31Q34.00 6.13 34.14 5.97L34.14 5.97L34.14 5.97Q34.41 5.67 34.88 5.43L34.88 5.43L34.88 5.43Q35.10 5.34 35.34 5.35L35.34 5.35L35.34 5.35Q35.49 5.36 35.64 5.39L35.64 5.39L35.64 5.39Q35.77 5.41 35.86 5.42L35.86 5.42L35.86 5.42Q35.95 5.43 36.02 5.44L36.02 5.44L36.02 5.44Q36.54 5.50 36.95 5.91L36.95 5.91L36.95 5.91Q37.04 6.00 37.12 6.10L37.12 6.10L37.12 6.10Q37.19 6.21 37.27 6.33L37.27 6.33L37.30 6.38L37.30 6.38Q37.31 6.41 37.32 6.42L37.32 6.42L37.32 6.42Q37.32 6.43 37.33 6.45L37.33 6.45L37.33 6.45Q37.45 6.72 37.54 7.13L37.54 7.13L37.54 7.13Q37.63 7.51 37.57 7.83L37.57 7.83L37.57 7.83Q37.53 8.02 37.47 8.19L37.47 8.19L37.47 8.19Q37.41 8.36 37.36 8.53L37.36 8.53L37.36 8.53Q37.09 9.45 36.16 9.69L36.16 9.69L36.10 9.70L36.10 9.70Q36.05 9.71 35.96 9.73L35.96 9.73L35.96 9.73Q35.88 9.74 35.77 9.75L35.77 9.75L35.77 9.75Q35.59 9.78 35.41 9.76L35.41 9.76L35.41 9.76Q35.22 9.75 35.02 9.69ZM35.72 5.78L35.71 5.78L35.71 5.78Q35.34 5.78 35.04 5.87L35.04 5.87L35.04 5.87Q34.75 5.95 34.51 6.19L34.51 6.19L34.51 6.19Q34.18 6.52 34.09 6.92L34.09 6.92L34.09 6.92Q34.00 7.32 34.10 7.81L34.10 7.81L34.16 8.15L34.16 8.15Q34.17 8.24 34.19 8.30L34.19 8.30L34.19 8.30Q34.20 8.36 34.21 8.37L34.21 8.37L34.21 8.37Q34.25 8.52 34.37 8.66L34.37 8.66L34.37 8.66Q34.49 8.80 34.60 8.90L34.60 8.90L34.60 8.90Q34.65 8.96 34.71 9.02L34.71 9.02L34.71 9.02Q34.76 9.08 34.82 9.13L34.82 9.13L34.82 9.13Q34.92 9.21 35.16 9.29L35.16 9.29L35.17 9.29L35.17 9.29Q35.30 9.32 35.46 9.31L35.46 9.31L35.46 9.31Q35.62 9.30 35.82 9.26L35.82 9.26L35.82 9.26Q35.92 9.23 36.02 9.22L36.02 9.22L36.02 9.22Q36.11 9.21 36.22 9.18L36.22 9.18L36.22 9.18Q36.47 9.12 36.64 8.91L36.64 8.91L36.65 8.91L36.65 8.90L36.65 8.90Q36.76 8.77 36.83 8.57L36.83 8.57L36.83 8.57Q36.90 8.37 36.93 8.32L36.93 8.32L36.93 8.32Q37.28 7.65 37.04 6.87L37.04 6.87L37.03 6.86L37.03 6.86Q37.00 6.79 36.98 6.72L36.98 6.72L36.98 6.72Q36.95 6.65 36.90 6.58L36.90 6.58L36.90 6.58Q36.63 6.18 36.26 6.00L36.26 6.00L36.26 6.00Q36.25 6.00 36.20 5.97L36.20 5.97L36.20 5.97Q36.16 5.94 36.07 5.89L36.07 5.89L36.07 5.89Q35.94 5.81 35.72 5.78L35.72 5.78ZM39.40 5.50L39.40 5.50L39.40 5.50Q39.75 5.21 39.79 5.67L39.79 5.67L39.79 5.67Q39.81 5.76 39.81 5.87L39.81 5.87L39.81 5.87Q39.81 5.97 39.80 6.08L39.80 6.08L39.80 6.08Q39.79 6.21 39.79 6.32L39.79 6.32L39.79 6.32Q39.79 6.44 39.79 6.56L39.79 6.56L39.79 6.56Q39.80 6.90 39.96 6.96L39.96 6.96L39.96 6.96Q40.12 7.02 40.30 6.82L40.30 6.82L40.30 6.82Q40.42 6.69 40.56 6.54L40.56 6.54L40.56 6.54Q40.69 6.39 40.86 6.25L40.86 6.25L40.86 6.25Q41.00 6.14 41.13 6.02L41.13 6.02L41.13 6.02Q41.25 5.89 41.38 5.77L41.38 5.77L41.38 5.77Q41.41 5.74 41.47 5.70L41.47 5.70L41.47 5.70Q41.53 5.65 41.62 5.58L41.62 5.58L41.62 5.58Q41.78 5.46 41.86 5.43L41.86 5.43L41.86 5.43Q42.01 5.41 42.09 5.51L42.09 5.51L42.09 5.51Q42.15 5.63 42.04 5.74L42.04 5.74L42.04 5.74Q41.95 5.87 41.87 5.96L41.87 5.96L41.87 5.96Q41.79 6.04 41.75 6.09L41.75 6.09L41.75 6.09Q41.65 6.19 41.40 6.38L41.40 6.38L41.40 6.38Q41.29 6.46 41.17 6.56L41.17 6.56L41.17 6.56Q41.06 6.65 40.96 6.75L40.96 6.75L40.96 6.75Q40.79 6.94 40.77 7.10L40.77 7.10L40.77 7.10Q40.76 7.18 40.79 7.28L40.79 7.28L40.79 7.28Q40.81 7.38 40.88 7.50L40.88 7.50L40.88 7.50Q40.94 7.62 41.01 7.74L41.01 7.74L41.01 7.74Q41.08 7.86 41.14 7.98L41.14 7.98L41.14 7.98Q41.17 8.05 41.20 8.11L41.20 8.11L41.20 8.11Q41.23 8.16 41.24 8.20L41.24 8.20L41.24 8.20L41.24 8.20Q41.40 8.50 41.63 8.78L41.63 8.78L41.63 8.78Q41.86 9.06 42.15 9.34L42.15 9.34L42.15 9.34Q42.30 9.48 42.15 9.63L42.15 9.63L42.15 9.63Q42 9.79 41.85 9.64L41.85 9.64L41.85 9.64Q41.32 9.14 41.07 8.74L41.07 8.74L41.07 8.74Q40.91 8.49 40.78 8.22L40.78 8.22L40.78 8.22Q40.65 7.95 40.52 7.68L40.52 7.68L40.52 7.68Q40.41 7.46 40.27 7.45L40.27 7.45L40.27 7.45Q40.15 7.45 39.96 7.67L39.96 7.67L39.96 7.67Q39.89 7.77 39.85 7.87L39.85 7.87L39.85 7.87Q39.82 7.97 39.81 8.08L39.81 8.08L39.81 8.08Q39.79 8.24 39.83 8.40L39.83 8.40L39.83 8.40Q39.86 8.57 39.84 8.72L39.84 8.72L39.84 8.72Q39.84 8.76 39.83 8.78L39.83 8.78L39.83 8.78Q39.81 8.97 39.80 9.14L39.80 9.14L39.80 9.14Q39.79 9.32 39.80 9.48L39.80 9.48L39.80 9.48Q39.80 9.68 39.57 9.70L39.57 9.70L39.57 9.70Q39.38 9.69 39.38 9.49L39.38 9.49L39.38 9.49Q39.38 9.16 39.36 8.84L39.36 8.84L39.36 8.84Q39.35 8.51 39.34 8.18L39.34 8.18L39.34 8.18Q39.33 7.94 39.36 7.69L39.36 7.69L39.36 7.69Q39.40 7.44 39.40 7.20L39.40 7.20L39.40 7.20Q39.40 7.11 39.40 7.01L39.40 7.01L39.40 7.01Q39.40 6.92 39.40 6.82L39.40 6.82L39.40 6.82Q39.41 6.47 39.40 6.33L39.40 6.33L39.33 5.91L39.33 5.91Q39.29 5.65 39.40 5.50Z"></path></g><defs data-v-423bf9ae=""><linearGradient data-v-423bf9ae="" gradientTransform="rotate(25)" id="212b7331-9dbe-4e4e-a265-3fdf7e1b1748" x1="0%" y1="0%" x2="100%" y2="0%"><stop data-v-423bf9ae="" offset="0%" style="stop-color: rgb(4, 24, 4); stop-opacity: 1;"></stop><stop data-v-423bf9ae="" offset="100%" style="stop-opacity: 1;"></stop></linearGradient></defs><g data-v-423bf9ae="" id="4e719d1f-3a9b-487b-aad5-90641175ba69" transform="matrix(1.042801290878185,0,0,1.042801290878185,0.9378193405835589,-6.257278566163009)" stroke="none" fill="url(#212b7331-9dbe-4e4e-a265-3fdf7e1b1748)"><path d="M34.87 64.586h23.979v21.406a6.316 6.316 0 0 0 6.323 6.324c3.499 0 6.349-2.826 6.349-6.324V64.586a2.694 2.694 0 0 0 2.733-2.695V45.926L53.562 36.13H10.976l-5.494-3.108A3.655 3.655 0 0 0 .48 34.394a3.672 3.672 0 0 0 1.374 5.002l8.681 4.978v41.619c0 3.498 2.838 6.324 6.337 6.324a6.327 6.327 0 0 0 6.336-6.324l-.012-16.301 11.48 19.386c1.789 3.008 5.676 3.99 8.694 2.203 2.993-1.79 3.979-5.703 2.191-8.709L34.87 64.586zM88.154 12.751l-3.138-4.85-30.632 6.146L65.9 30.567l5.272-3.296V15.176h3.032v13.775l-9.281 5.8-4.562-6.64-4.245 5.062 18.57 9.112 25.123-15.273.043-14.275-11.698.014zm-8.317 10.448a2.956 2.956 0 1 1 .002-5.912 2.956 2.956 0 0 1-.002 5.912z"></path><path d="M53.579 36.145L.202 10.407V6.011l55.937 27.162z"></path></g><!----><g data-v-423bf9ae="" id="01f43045-97e7-4088-abc0-c6464748335e" fill="#000000" transform="matrix(1.297874311510737,0,0,1.297874311510737,123.85167713742487,57.96233593957561)"><path d="M4.48 2.45L0.21 12.60L0.70 12.60L1.97 9.52L6.99 9.52L8.26 12.60L8.75 12.60ZM4.48 3.50L6.79 9.07L2.17 9.07ZM28.10 9.74L27.72 9.90C28.35 11.77 29.40 12.71 30.87 12.71C31.78 12.71 32.48 12.45 32.94 11.93C33.41 11.41 33.64 10.77 33.64 10.01C33.64 9.66 33.58 9.35 33.47 9.06C33.35 8.78 33.22 8.55 33.08 8.37C32.93 8.19 32.73 8.02 32.47 7.86C32.20 7.70 31.99 7.58 31.83 7.50C31.67 7.43 31.44 7.34 31.16 7.22C31.13 7.21 31.01 7.16 30.81 7.08C30.62 7.01 30.50 6.96 30.45 6.94C30.40 6.91 30.30 6.87 30.13 6.80C29.96 6.73 29.85 6.67 29.80 6.64C29.75 6.60 29.66 6.54 29.53 6.45C29.40 6.37 29.31 6.30 29.26 6.24C29.21 6.18 29.15 6.10 29.06 6.00C28.98 5.90 28.92 5.80 28.89 5.70C28.86 5.61 28.83 5.50 28.80 5.38C28.77 5.25 28.76 5.12 28.76 4.98C28.76 4.41 28.95 3.95 29.35 3.62C29.75 3.29 30.24 3.12 30.83 3.12C31.96 3.12 32.74 3.77 33.18 5.07L33.59 4.90C33.38 4.23 33.04 3.69 32.58 3.29C32.11 2.89 31.53 2.69 30.84 2.69C30.15 2.69 29.55 2.90 29.04 3.33C28.53 3.76 28.28 4.33 28.28 5.04C28.28 5.39 28.35 5.71 28.50 5.99C28.64 6.27 28.86 6.51 29.14 6.71C29.43 6.91 29.68 7.07 29.91 7.17C30.14 7.28 30.44 7.41 30.80 7.55C31.08 7.65 31.27 7.72 31.37 7.77C31.48 7.82 31.65 7.90 31.89 8.02C32.13 8.13 32.31 8.24 32.42 8.34C32.52 8.45 32.65 8.58 32.80 8.75C32.94 8.92 33.04 9.11 33.10 9.32C33.15 9.54 33.18 9.78 33.18 10.05C33.18 10.72 32.99 11.27 32.61 11.68C32.23 12.09 31.67 12.29 30.91 12.29C29.68 12.29 28.74 11.44 28.10 9.74ZM42.04 9.38C42.04 10.36 42.33 11.16 42.90 11.78C43.48 12.40 44.20 12.71 45.08 12.71C45.96 12.71 46.68 12.40 47.26 11.78C47.83 11.16 48.12 10.36 48.12 9.38C48.12 8.40 47.83 7.60 47.26 6.98C46.68 6.36 45.96 6.05 45.08 6.05C44.20 6.05 43.48 6.36 42.90 6.98C42.33 7.60 42.04 8.40 42.04 9.38ZM42.46 9.38C42.46 8.52 42.71 7.82 43.20 7.28C43.70 6.74 44.32 6.47 45.08 6.47C45.84 6.47 46.46 6.74 46.96 7.28C47.45 7.82 47.70 8.52 47.70 9.38C47.70 10.24 47.45 10.94 46.96 11.48C46.46 12.02 45.84 12.29 45.08 12.29C44.32 12.29 43.70 12.02 43.20 11.48C42.71 10.94 42.46 10.24 42.46 9.38ZM56.74 9.38C56.74 8.55 56.99 7.86 57.49 7.30C57.99 6.75 58.64 6.47 59.43 6.47C60.37 6.47 61.07 6.83 61.53 7.56L61.53 6.87C61.05 6.32 60.35 6.05 59.43 6.05C58.54 6.05 57.80 6.36 57.20 6.99C56.61 7.62 56.31 8.42 56.31 9.38C56.31 10.34 56.61 11.14 57.20 11.77C57.80 12.40 58.54 12.71 59.43 12.71C60.36 12.71 61.06 12.44 61.53 11.89L61.53 11.20C61.30 11.63 61.01 11.92 60.66 12.07C60.32 12.22 59.91 12.29 59.43 12.29C58.64 12.29 57.99 12.01 57.49 11.46C56.99 10.90 56.74 10.21 56.74 9.38ZM70.56 3.15C70.56 3.26 70.59 3.36 70.67 3.43C70.73 3.50 70.83 3.54 70.95 3.54C71.07 3.54 71.17 3.50 71.24 3.43C71.31 3.36 71.34 3.26 71.34 3.15C71.34 3.04 71.31 2.94 71.24 2.87C71.17 2.80 71.07 2.76 70.95 2.76C70.83 2.76 70.73 2.80 70.67 2.87C70.59 2.94 70.56 3.04 70.56 3.15ZM70.74 6.16L70.74 12.60L71.16 12.60L71.16 6.16ZM80.56 7.32C80.93 7.03 81.28 6.81 81.60 6.66C81.92 6.51 82.32 6.44 82.80 6.44C83.93 6.44 84.50 6.95 84.50 7.98L84.50 9.13C84.01 8.82 83.38 8.67 82.63 8.67C81.94 8.67 81.34 8.85 80.84 9.21C80.34 9.56 80.09 10.07 80.09 10.71C80.09 11.39 80.30 11.90 80.72 12.24C81.14 12.57 81.65 12.74 82.24 12.74C82.83 12.74 83.33 12.61 83.73 12.35C84.12 12.09 84.38 11.74 84.50 11.31L84.50 12.60L84.92 12.60L84.92 7.98C84.92 7.34 84.76 6.85 84.42 6.52C84.08 6.19 83.54 6.02 82.80 6.02C82.43 6.02 82.08 6.07 81.75 6.18C81.42 6.29 81.17 6.40 81.00 6.50C80.82 6.61 80.60 6.76 80.33 6.96ZM80.53 10.71C80.53 10.20 80.73 9.79 81.12 9.50C81.52 9.21 82.02 9.06 82.63 9.06C83.30 9.06 83.93 9.23 84.50 9.56L84.50 10.36C84.50 10.94 84.28 11.41 83.85 11.79C83.41 12.16 82.89 12.35 82.31 12.35C81.75 12.35 81.31 12.21 81.00 11.93C80.68 11.65 80.53 11.24 80.53 10.71ZM94.09 1.68L94.09 12.60L94.51 12.60L94.51 1.68ZM122.09 2.80L122.09 11.79L114.60 2.45L114.60 12.60L115.02 12.60L115.02 3.61L122.51 12.95L122.51 2.80ZM136.15 9.06L131.31 9.06C131.32 8.38 131.57 7.77 132.06 7.25C132.54 6.73 133.12 6.47 133.80 6.47C134.48 6.47 135.04 6.72 135.48 7.24C135.92 7.75 136.14 8.36 136.15 9.06ZM131.28 9.48L136.58 9.48C136.59 9.43 136.60 9.38 136.60 9.32C136.60 8.33 136.34 7.53 135.82 6.94C135.30 6.34 134.63 6.05 133.80 6.05C132.95 6.05 132.24 6.36 131.68 6.99C131.12 7.61 130.84 8.41 130.84 9.38C130.84 10.33 131.14 11.13 131.73 11.76C132.31 12.39 133.00 12.71 133.80 12.71C135.03 12.71 135.95 12.13 136.56 10.96L136.19 10.74C135.65 11.76 134.86 12.28 133.83 12.28C133.14 12.28 132.54 12.01 132.05 11.47C131.55 10.92 131.30 10.26 131.28 9.48ZM145.49 3.92L145.49 6.16L144.44 6.16L144.44 6.58L145.49 6.58L145.49 12.60L145.91 12.60L145.91 6.58L146.96 6.58L146.96 6.16L145.91 6.16L145.91 3.92ZM154.66 6.16L157.11 13.05L159.14 6.93L161.17 13.05L163.62 6.16L163.16 6.16L161.18 11.90L159.14 5.81L157.09 11.90L155.12 6.16ZM171.46 9.38C171.46 10.36 171.75 11.16 172.32 11.78C172.89 12.40 173.62 12.71 174.50 12.71C175.37 12.71 176.10 12.40 176.67 11.78C177.25 11.16 177.53 10.36 177.53 9.38C177.53 8.40 177.25 7.60 176.67 6.98C176.10 6.36 175.37 6.05 174.50 6.05C173.62 6.05 172.89 6.36 172.32 6.98C171.75 7.60 171.46 8.40 171.46 9.38ZM171.88 9.38C171.88 8.52 172.13 7.82 172.62 7.28C173.11 6.74 173.74 6.47 174.50 6.47C175.25 6.47 175.88 6.74 176.37 7.28C176.87 7.82 177.11 8.52 177.11 9.38C177.11 10.24 176.87 10.94 176.37 11.48C175.88 12.02 175.25 12.29 174.50 12.29C173.74 12.29 173.11 12.02 172.62 11.48C172.13 10.94 171.88 10.24 171.88 9.38ZM189.08 6.96L189.34 6.57C188.97 6.22 188.62 6.05 188.27 6.05C187.49 6.05 186.99 6.51 186.77 7.43L186.77 6.16L186.35 6.16L186.35 12.60L186.77 12.60L186.77 8.68C186.77 8.17 186.90 7.68 187.15 7.21C187.40 6.74 187.73 6.51 188.12 6.51C188.54 6.51 188.86 6.66 189.08 6.96ZM197.67 1.68L197.67 12.60L198.09 12.60L198.09 8.90L201.36 12.60L201.94 12.60L198.58 8.82L201.66 6.16L201.03 6.16L198.09 8.69L198.09 1.68ZM224.04 2.55L224.31 2.24C223.97 1.79 223.58 1.57 223.12 1.57C222.11 1.57 221.61 2.31 221.61 3.78L221.61 6.16L220.98 6.16L220.98 6.58L221.61 6.58L221.61 12.60L222.03 12.60L222.03 6.58L223.71 6.58L223.71 6.16L222.03 6.16L222.03 3.78C222.03 2.60 222.39 2.02 223.12 2.02C223.45 2.02 223.76 2.19 224.04 2.55ZM231.80 9.38C231.80 10.36 232.09 11.16 232.66 11.78C233.23 12.40 233.96 12.71 234.84 12.71C235.71 12.71 236.44 12.40 237.01 11.78C237.59 11.16 237.87 10.36 237.87 9.38C237.87 8.40 237.59 7.60 237.01 6.98C236.44 6.36 235.71 6.05 234.84 6.05C233.96 6.05 233.23 6.36 232.66 6.98C232.09 7.60 231.80 8.40 231.80 9.38ZM232.22 9.38C232.22 8.52 232.47 7.82 232.96 7.28C233.45 6.74 234.08 6.47 234.84 6.47C235.59 6.47 236.22 6.74 236.71 7.28C237.21 7.82 237.45 8.52 237.45 9.38C237.45 10.24 237.21 10.94 236.71 11.48C236.22 12.02 235.59 12.29 234.84 12.29C234.08 12.29 233.45 12.02 232.96 11.48C232.47 10.94 232.22 10.24 232.22 9.38ZM249.42 6.96L249.68 6.57C249.31 6.22 248.96 6.05 248.61 6.05C247.83 6.05 247.33 6.51 247.11 7.43L247.11 6.16L246.69 6.16L246.69 12.60L247.11 12.60L247.11 8.68C247.11 8.17 247.24 7.68 247.49 7.21C247.74 6.74 248.07 6.51 248.46 6.51C248.88 6.51 249.20 6.66 249.42 6.96ZM272.57 2.45L268.30 12.60L268.79 12.60L270.06 9.52L275.07 9.52L276.35 12.60L276.84 12.60ZM272.57 3.50L274.88 9.07L270.26 9.07ZM285.66 8.68C285.66 8.12 285.86 7.61 286.26 7.15C286.67 6.70 287.18 6.47 287.78 6.47C288.84 6.47 289.37 7.16 289.37 8.54L289.37 12.60L289.79 12.60L289.79 8.40C289.79 7.68 289.63 7.11 289.31 6.68C288.99 6.26 288.53 6.05 287.92 6.05C287.34 6.05 286.85 6.19 286.47 6.46C286.09 6.74 285.81 7.12 285.66 7.62L285.66 6.16L285.24 6.16L285.24 12.60L285.66 12.60ZM299.17 3.15C299.17 3.26 299.20 3.36 299.27 3.43C299.34 3.50 299.44 3.54 299.56 3.54C299.68 3.54 299.77 3.50 299.85 3.43C299.92 3.36 299.95 3.26 299.95 3.15C299.95 3.04 299.92 2.94 299.85 2.87C299.77 2.80 299.68 2.76 299.56 2.76C299.44 2.76 299.34 2.80 299.27 2.87C299.20 2.94 299.17 3.04 299.17 3.15ZM299.35 6.16L299.35 12.60L299.77 12.60L299.77 6.16ZM309.75 8.68C309.75 8.13 309.95 7.62 310.34 7.16C310.73 6.70 311.20 6.47 311.74 6.47C312.21 6.47 312.57 6.65 312.82 7.01C313.06 7.38 313.18 7.89 313.18 8.54L313.18 12.60L313.60 12.60L313.60 8.68C313.60 8.13 313.80 7.62 314.19 7.16C314.58 6.70 315.05 6.47 315.59 6.47C316.06 6.47 316.42 6.65 316.67 7.01C316.91 7.38 317.03 7.89 317.03 8.54L317.03 12.60L317.45 12.60L317.45 8.40C317.45 7.69 317.30 7.12 317.00 6.69C316.69 6.26 316.27 6.05 315.73 6.05C315.19 6.05 314.72 6.19 314.34 6.47C313.96 6.76 313.69 7.15 313.53 7.64C313.43 7.15 313.24 6.76 312.96 6.47C312.68 6.19 312.32 6.05 311.88 6.05C311.35 6.05 310.90 6.19 310.53 6.47C310.16 6.75 309.90 7.13 309.75 7.62L309.75 6.16L309.33 6.16L309.33 12.60L309.75 12.60ZM326.66 7.32C327.04 7.03 327.38 6.81 327.70 6.66C328.03 6.51 328.43 6.44 328.90 6.44C330.04 6.44 330.61 6.95 330.61 7.98L330.61 9.13C330.12 8.82 329.49 8.67 328.73 8.67C328.04 8.67 327.45 8.85 326.95 9.21C326.45 9.56 326.20 10.07 326.20 10.71C326.20 11.39 326.41 11.90 326.83 12.24C327.25 12.57 327.75 12.74 328.34 12.74C328.94 12.74 329.44 12.61 329.83 12.35C330.23 12.09 330.49 11.74 330.61 11.31L330.61 12.60L331.03 12.60L331.03 7.98C331.03 7.34 330.86 6.85 330.53 6.52C330.19 6.19 329.65 6.02 328.90 6.02C328.54 6.02 328.19 6.07 327.86 6.18C327.53 6.29 327.28 6.40 327.10 6.50C326.93 6.61 326.71 6.76 326.44 6.96ZM326.63 10.71C326.63 10.20 326.83 9.79 327.23 9.50C327.63 9.21 328.13 9.06 328.73 9.06C329.41 9.06 330.03 9.23 330.61 9.56L330.61 10.36C330.61 10.94 330.39 11.41 329.95 11.79C329.51 12.16 329 12.35 328.41 12.35C327.85 12.35 327.42 12.21 327.10 11.93C326.79 11.65 326.63 11.24 326.63 10.71ZM340.20 1.68L340.20 12.60L340.62 12.60L340.62 1.68ZM349.79 10.50L349.37 10.58C349.48 11.16 349.74 11.66 350.13 12.08C350.53 12.50 351.04 12.71 351.65 12.71C352.22 12.71 352.69 12.56 353.05 12.24C353.42 11.93 353.60 11.50 353.60 10.96C353.60 9.99 353.01 9.34 351.83 9.00C351.32 8.85 350.92 8.68 350.64 8.47C350.36 8.26 350.22 7.98 350.22 7.63C350.22 7.28 350.35 7.00 350.61 6.79C350.87 6.58 351.21 6.48 351.65 6.48C352.36 6.48 352.88 6.86 353.21 7.63L353.58 7.45C353.26 6.51 352.61 6.05 351.64 6.05C351.11 6.05 350.66 6.19 350.29 6.47C349.93 6.75 349.75 7.14 349.75 7.64C349.75 7.90 349.79 8.12 349.89 8.31C349.98 8.50 350.13 8.66 350.33 8.80C350.53 8.93 350.72 9.04 350.90 9.12C351.08 9.20 351.33 9.29 351.64 9.39C352.15 9.57 352.53 9.78 352.77 10.01C353.01 10.24 353.14 10.57 353.14 11.00C353.14 11.38 353.01 11.68 352.74 11.92C352.48 12.16 352.11 12.28 351.64 12.28C351.12 12.28 350.69 12.09 350.37 11.71C350.05 11.33 349.86 10.93 349.79 10.50Z"></path></g></svg>